<svg width="24" height="24" viewBox="0 0 24 24" fill="none" xmlns="http://www.w3.org/2000/svg">
<g clip-path="url(#clip0_4297_2191)">
<path d="M15.7031 19.2656H0.703125C0.314812 19.2656 0 19.5804 0 19.9687C0 21.1337 0.944391 22.0781 2.10938 22.0781H14.2969C15.4619 22.0781 16.4062 21.1337 16.4062 19.9687C16.4062 19.5804 16.0914 19.2656 15.7031 19.2656ZM23.6545 3.12988C20.9289 1.51921 18.1647 1.51921 15.4391 3.12988C15.1138 3.32211 14.9985 3.73714 15.1783 4.06958L17.3127 8.01786H21.7809L23.9153 4.06958C24.095 3.73714 23.9798 3.32211 23.6545 3.12988ZM17.789 9.42186H21.3046V11.5312H17.789V9.42186ZM17.789 20.3203C17.789 21.2911 18.576 22.0781 19.5468 22.0781C20.5176 22.0781 21.3046 21.2911 21.3046 20.3203V12.9375H17.789V20.3203ZM12.0149 7.25075C10.9967 6.23258 9.64303 5.67186 8.20312 5.67186C6.76322 5.67186 5.40952 6.23258 4.39139 7.25075C3.37322 8.26888 2.8125 9.62258 2.8125 11.0625C2.8125 12.5024 3.37322 13.8561 4.39139 14.8742C5.40952 15.8924 6.76322 16.4531 8.20312 16.4531C9.64303 16.4531 10.9967 15.8924 12.0149 14.8742C13.033 13.8561 13.5938 12.5024 13.5938 11.0625C13.5938 9.62258 13.033 8.26888 12.0149 7.25075ZM5.5515 12.4285C5.45915 12.4286 5.36768 12.4105 5.28236 12.3752C5.19704 12.3398 5.11955 12.288 5.05434 12.2225C4.77975 11.948 4.77975 11.5028 5.05434 11.2282L8.36887 7.91366C8.64342 7.63907 9.08864 7.63907 9.36323 7.91366C9.63783 8.18825 9.63783 8.63343 9.36323 8.90802L6.0487 12.2225C5.98349 12.2879 5.90599 12.3398 5.82066 12.3752C5.73533 12.4105 5.64386 12.4286 5.5515 12.4285ZM11.352 10.8967L8.03742 14.2113C7.90013 14.3486 7.72017 14.4172 7.54027 14.4172C7.36036 14.4172 7.18036 14.3486 7.04311 14.2113C6.76852 13.9367 6.76852 13.4915 7.04311 13.2169L10.3576 9.90238C10.6322 9.62779 11.0774 9.62779 11.352 9.90238C11.6265 10.177 11.6265 10.6221 11.352 10.8967Z" fill="#4AB2B9"/>
<path d="M8.20312 2.85938C3.67992 2.85938 0 6.5393 0 11.0625C0 13.8874 1.43536 16.3833 3.615 17.8594H8.20312C4.44933 17.8594 1.40625 14.8163 1.40625 11.0625C1.40625 7.3087 4.44933 4.26562 8.20312 4.26562C11.9569 4.26562 15 7.3087 15 11.0625C15 14.8163 11.9569 17.8594 8.20312 17.8594H12.7913C14.9709 16.3833 16.4062 13.8874 16.4062 11.0625C16.4062 6.5393 12.7263 2.85938 8.20312 2.85938Z" fill="#4AB2B9"/>
</g>
<defs>
<clipPath id="clip0_4297_2191">
<rect width="24" height="24" fill="white"/>
</clipPath>
</defs>
</svg>
