<svg width="54" height="54" viewBox="0 0 54 54" fill="none" xmlns="http://www.w3.org/2000/svg">
<rect width="54" height="54" rx="18" fill="#01B1DF" fill-opacity="0.06"/>
<rect x="0.5" y="0.5" width="53" height="53" rx="17.5" stroke="#01B1DF" stroke-opacity="0.12"/>
<path d="M33.4995 13.8594H20.4998C16.9252 13.8594 14 16.7846 14 20.3592V33.3595C14 36.9332 16.9252 39.8594 20.4998 39.8594H33.4995C37.0741 39.8594 39.9994 36.9332 39.9994 33.3595V20.3592C39.9994 16.7846 37.0741 13.8594 33.4995 13.8594ZM37.8326 33.3595C37.8326 35.7482 35.8895 37.6927 33.4995 37.6927H20.4998C18.1108 37.6927 16.1667 35.7482 16.1667 33.3595V20.3592C16.1667 17.9699 18.1108 16.0261 20.4998 16.0261H33.4995C35.8895 16.0261 37.8326 17.9699 37.8326 20.3592V33.3595Z" fill="white"/>
<path d="M34.0422 21.4423C34.9397 21.4423 35.6672 20.7148 35.6672 19.8173C35.6672 18.9199 34.9397 18.1924 34.0422 18.1924C33.1448 18.1924 32.4173 18.9199 32.4173 19.8173C32.4173 20.7148 33.1448 21.4423 34.0422 21.4423Z" fill="white"/>
<path d="M26.9997 20.3594C23.4092 20.3594 20.4998 23.269 20.4998 26.8592C20.4998 30.4481 23.4092 33.3597 26.9997 33.3597C30.5892 33.3597 33.4995 30.4481 33.4995 26.8592C33.4995 23.269 30.5892 20.3594 26.9997 20.3594ZM26.9997 31.193C24.6067 31.193 22.6666 29.2528 22.6666 26.8592C22.6666 24.4656 24.6067 22.5261 26.9997 22.5261C29.3926 22.5261 31.3328 24.4656 31.3328 26.8592C31.3328 29.2528 29.3926 31.193 26.9997 31.193Z" fill="white"/>
</svg>
