<svg width="54" height="54" viewBox="0 0 54 54" fill="none" xmlns="http://www.w3.org/2000/svg">
<rect width="54" height="54" rx="18" fill="#01B1DF" fill-opacity="0.06"/>
<rect x="0.5" y="0.5" width="53" height="53" rx="17.5" stroke="#01B1DF" stroke-opacity="0.12"/>
<g clip-path="url(#clip0_4297_2925)">
<path d="M38.4229 19.1505C35.4839 19.1505 33.0928 16.7594 33.0928 13.8203C33.0928 13.3673 32.7255 13 32.2725 13H27.8792C27.4262 13 27.0589 13.3673 27.0589 13.8203V31.8326C27.0589 33.5604 25.6531 34.9661 23.9252 34.9661C22.1974 34.9661 20.7917 33.5604 20.7917 31.8326C20.7917 30.1047 22.1974 28.6989 23.9252 28.6989C24.3783 28.6989 24.7456 28.3316 24.7456 27.8786V23.4853C24.7456 23.0323 24.3783 22.665 23.9252 22.665C18.8703 22.665 14.7578 26.7776 14.7578 31.8326C14.7579 36.8875 18.8703 41 23.9253 41C28.9803 41 33.0928 36.8875 33.0928 31.8326V23.8597C34.7256 24.73 36.5421 25.1844 38.423 25.1844C38.876 25.1844 39.2433 24.8171 39.2433 24.3641V19.9709C39.2432 19.5178 38.8759 19.1505 38.4229 19.1505ZM37.6026 23.5098C35.8513 23.3642 34.1884 22.7524 32.7515 21.7188C32.629 21.6306 32.4845 21.578 32.334 21.5667C32.1834 21.5554 32.0327 21.5858 31.8984 21.6547C31.764 21.7235 31.6513 21.8281 31.5726 21.9569C31.4938 22.0857 31.4522 22.2337 31.4522 22.3846V31.8326C31.4522 35.9829 28.0756 39.3594 23.9252 39.3594C19.775 39.3594 16.3984 35.9829 16.3984 31.8326C16.3984 27.9593 19.339 24.7601 23.1049 24.3501V27.1288C20.8618 27.5188 19.1511 29.4796 19.1511 31.8326C19.1511 34.4651 21.2927 36.6067 23.9252 36.6067C26.5578 36.6067 28.6995 34.4651 28.6995 31.8326V14.6406H31.5001C31.8757 17.83 34.4133 20.3676 37.6025 20.7431V23.5098H37.6026Z" fill="white"/>
</g>
<defs>
<clipPath id="clip0_4297_2925">
<rect width="28" height="28" fill="white" transform="translate(13 13)"/>
</clipPath>
</defs>
</svg>
