<svg width="54" height="56" viewBox="0 0 54 56" fill="none" xmlns="http://www.w3.org/2000/svg">
<rect width="54" height="56" rx="18" fill="#01B1DF" fill-opacity="0.06"/>
<rect x="0.5" y="0.5" width="53" height="55" rx="17.5" stroke="#01B1DF" stroke-opacity="0.12"/>
<path d="M15.1276 34.251C14.2544 30.1301 14.2544 25.8719 15.1276 21.751C15.2423 21.3325 15.464 20.9511 15.7708 20.6442C16.0777 20.3374 16.4591 20.1157 16.8776 20.001C23.5819 18.8903 30.4233 18.8903 37.1276 20.001C37.5461 20.1157 37.9275 20.3374 38.2343 20.6442C38.5412 20.9511 38.7628 21.3325 38.8776 21.751C39.7508 25.8719 39.7508 30.1301 38.8776 34.251C38.7628 34.6695 38.5412 35.0509 38.2343 35.3577C37.9275 35.6646 37.5461 35.8862 37.1276 36.001C30.4233 37.1119 23.5819 37.1119 16.8776 36.001C16.4591 35.8862 16.0777 35.6646 15.7708 35.3577C15.464 35.0509 15.2423 34.6695 15.1276 34.251Z" stroke="white" stroke-width="1.66667" stroke-linecap="round" stroke-linejoin="round"/>
<path d="M24.5 31.75L30.75 28L24.5 24.25V31.75Z" stroke="white" stroke-width="1.66667" stroke-linecap="round" stroke-linejoin="round"/>
</svg>
